<svg width="254" height="53" viewBox="0 0 254 53" fill="none" xmlns="http://www.w3.org/2000/svg">
<path d="M72.23 7.9H75.68V15.97H75.74C76.16 15.33 76.74 14.77 77.44 14.41C78.11 14.02 78.92 13.8 79.78 13.8C82.09 13.8 84.51 15.33 84.51 19.67V27.66H81.08V20.06C81.08 18.08 80.36 16.61 78.46 16.61C77.12 16.61 76.18 17.5 75.82 18.53C75.71 18.81 75.68 19.17 75.68 19.56V27.66H72.23V7.9Z" fill="#342B48"/>
<path d="M89.76 21.85C89.84 24.3 91.76 25.36 93.94 25.36C95.53 25.36 96.67 25.14 97.7 24.75L98.2 27.12C97.03 27.59 95.42 27.98 93.47 27.98C89.07 27.98 86.48 25.25 86.48 21.1C86.48 17.34 88.76 13.81 93.11 13.81C97.46 13.81 98.96 17.43 98.96 20.41C98.96 21.05 98.9 21.55 98.85 21.86H89.77L89.76 21.85ZM95.72 19.46C95.75 18.21 95.19 16.15 92.91 16.15C90.79 16.15 89.9 18.07 89.76 19.46H95.72V19.46Z" fill="#342B48"/>
<path d="M119.44 27.11C118.63 27.53 116.85 27.97 114.6 27.97C108.64 27.97 105.02 24.21 105.02 18.51C105.02 12.33 109.31 8.6 115.04 8.6C117.29 8.6 118.91 9.07 119.6 9.44L118.85 12.17C117.96 11.78 116.73 11.45 115.17 11.45C111.36 11.45 108.6 13.84 108.6 18.35C108.6 22.47 111.02 25.11 115.14 25.11C116.53 25.11 117.98 24.83 118.87 24.42L119.43 27.12L119.44 27.11Z" fill="#342B48"/>
<path d="M133.86 20.76C133.86 25.74 130.35 27.97 126.9 27.97C123.06 27.97 120.11 25.32 120.11 20.98C120.11 16.64 123.03 13.8 127.12 13.8C131.21 13.8 133.86 16.64 133.86 20.76V20.76ZM123.64 20.9C123.64 23.52 124.92 25.49 127.01 25.49C128.96 25.49 130.32 23.57 130.32 20.84C130.32 18.72 129.37 16.3 127.03 16.3C124.69 16.3 123.63 18.64 123.63 20.89" fill="#342B48"/>
<path d="M135.86 18.14C135.86 16.58 135.83 15.27 135.75 14.1H138.76L138.93 16.13H139.01C139.59 15.07 141.07 13.79 143.32 13.79C145.69 13.79 148.13 15.32 148.13 19.61V27.66H144.71V20C144.71 18.05 143.99 16.58 142.12 16.58C140.76 16.58 139.81 17.55 139.45 18.58C139.34 18.89 139.31 19.3 139.31 19.7V27.66H135.86V18.14V18.14Z" fill="#342B48"/>
<path d="M150.67 24.52C151.45 24.99 152.93 25.49 154.15 25.49C155.65 25.49 156.32 24.88 156.32 23.99C156.32 23.1 155.76 22.6 154.09 22.01C151.45 21.09 150.33 19.64 150.36 18.06C150.36 15.67 152.34 13.8 155.48 13.8C156.99 13.8 158.29 14.19 159.07 14.61L158.4 17.03C157.82 16.7 156.73 16.25 155.53 16.25C154.33 16.25 153.64 16.83 153.64 17.67C153.64 18.51 154.28 18.95 156.01 19.56C158.46 20.45 159.6 21.7 159.63 23.71C159.63 26.16 157.71 27.97 154.12 27.97C152.48 27.97 151 27.55 150 27L150.67 24.52V24.52Z" fill="#342B48"/>
<path d="M164.06 21.85C164.15 24.3 166.06 25.36 168.24 25.36C169.83 25.36 170.97 25.14 172 24.75L172.5 27.12C171.33 27.59 169.72 27.98 167.77 27.98C163.37 27.98 160.78 25.25 160.78 21.1C160.78 17.34 163.06 13.81 167.41 13.81C171.76 13.81 173.26 17.43 173.26 20.41C173.26 21.05 173.2 21.55 173.15 21.86H164.07L164.06 21.85ZM170.02 19.46C170.05 18.21 169.49 16.15 167.21 16.15C165.09 16.15 164.2 18.07 164.06 19.46H170.02Z" fill="#342B48"/>
<path d="M175.19 18.48C175.19 16.64 175.16 15.33 175.08 14.11H178.06L178.17 16.7H178.28C178.95 14.78 180.53 13.8 181.98 13.8C182.31 13.8 182.51 13.83 182.79 13.88V17.11C182.51 17.05 182.21 17 181.79 17C180.15 17 179.03 18.06 178.73 19.59C178.67 19.9 178.62 20.26 178.62 20.65V27.66H175.2V18.47L175.19 18.48Z" fill="#342B48"/>
<path d="M187.08 14.11L189.28 20.99C189.67 22.19 189.95 23.27 190.2 24.39H190.28C190.53 23.28 190.84 22.22 191.2 20.99L193.34 14.11H196.96L191.78 27.67H188.41L183.37 14.11H187.07H187.08Z" fill="#342B48"/>
<path d="M208.6 24.41C208.6 25.63 208.65 26.83 208.79 27.67H205.7L205.48 26.17H205.4C204.56 27.23 203.15 27.98 201.39 27.98C198.66 27.98 197.13 26 197.13 23.94C197.13 20.52 200.16 18.79 205.18 18.82V18.6C205.18 17.71 204.82 16.24 202.42 16.24C201.08 16.24 199.69 16.66 198.77 17.24L198.1 15.01C199.1 14.4 200.85 13.81 203 13.81C207.34 13.81 208.6 16.57 208.6 19.52V24.42V24.41ZM205.26 21.04C202.84 20.98 200.53 21.51 200.53 23.57C200.53 24.91 201.39 25.52 202.48 25.52C203.84 25.52 204.85 24.63 205.15 23.65C205.23 23.4 205.26 23.12 205.26 22.9V21.04Z" fill="#342B48"/>
<path d="M214.86 10.63V14.11H218.12V16.67H214.86V22.65C214.86 24.29 215.31 25.15 216.61 25.15C217.25 25.15 217.56 25.09 217.95 24.98L218 27.6C217.5 27.79 216.61 27.96 215.52 27.96C214.27 27.96 213.21 27.51 212.57 26.82C211.85 26.04 211.51 24.82 211.51 23.03V16.66H209.56V14.1H211.51V11.6L214.85 10.63H214.86Z" fill="#342B48"/>
<path d="M223.55 10.32C223.55 11.35 222.8 12.16 221.6 12.16C220.4 12.16 219.71 11.35 219.71 10.32C219.71 9.29 220.49 8.45 221.63 8.45C222.77 8.45 223.52 9.26 223.55 10.32ZM219.9 14.1H223.35V27.66H219.9V14.11V14.1Z" fill="#342B48"/>
<path d="M239.11 20.76C239.11 25.74 235.6 27.97 232.15 27.97C228.31 27.97 225.36 25.32 225.36 20.98C225.36 16.64 228.28 13.8 232.38 13.8C236.48 13.8 239.12 16.64 239.12 20.76H239.11ZM228.9 20.9C228.9 23.52 230.18 25.49 232.27 25.49C234.22 25.49 235.58 23.57 235.58 20.84C235.58 18.72 234.63 16.3 232.3 16.3C229.97 16.3 228.9 18.64 228.9 20.89" fill="#342B48"/>
<path d="M241.11 18.14C241.11 16.58 241.08 15.27 241 14.1H244.01L244.17 16.13H244.25C244.83 15.07 246.31 13.79 248.56 13.79C250.93 13.79 253.38 15.32 253.38 19.61V27.66H249.96V20C249.96 18.05 249.24 16.58 247.37 16.58C246.01 16.58 245.06 17.55 244.7 18.58C244.59 18.89 244.56 19.3 244.56 19.7V27.66H241.11V18.14V18.14Z" fill="#342B48"/>
<path d="M61.03 45.65L59.42 50.97H55.88L61.89 32.21H66.26L72.36 50.97H68.68L66.98 45.65H61.02H61.03ZM66.4 43.06L64.92 38.44C64.56 37.3 64.25 36.02 63.97 34.93H63.91C63.63 36.02 63.35 37.32 63.02 38.44L61.57 43.06H66.38H66.4Z" fill="#342B48"/>
<path d="M77.35 31.2H73.9V50.96H77.35V31.2Z" fill="#342B48"/>
<path d="M83.69 31.2H80.24V50.96H83.69V31.2Z" fill="#342B48"/>
<path d="M90.23 33.63C90.23 34.66 89.48 35.47 88.28 35.47C87.08 35.47 86.39 34.66 86.39 33.63C86.39 32.6 87.17 31.77 88.31 31.77C89.45 31.77 90.2 32.58 90.23 33.63ZM86.58 37.42H90.03V50.98H86.58V37.42Z" fill="#342B48"/>
<path d="M103.43 47.71C103.43 48.93 103.48 50.13 103.62 50.97H100.53L100.31 49.47H100.23C99.4 50.53 97.97 51.28 96.22 51.28C93.49 51.28 91.96 49.3 91.96 47.24C91.96 43.82 94.99 42.09 100.01 42.12V41.9C100.01 41.01 99.65 39.54 97.25 39.54C95.91 39.54 94.52 39.96 93.6 40.54L92.93 38.31C93.93 37.7 95.69 37.11 97.83 37.11C102.17 37.11 103.43 39.87 103.43 42.82V47.72V47.71ZM100.09 44.34C97.67 44.28 95.36 44.81 95.36 46.87C95.36 48.21 96.22 48.82 97.31 48.82C98.67 48.82 99.68 47.93 99.98 46.95C100.06 46.7 100.09 46.42 100.09 46.2V44.33V44.34Z" fill="#342B48"/>
<path d="M106.07 41.45C106.07 39.89 106.04 38.58 105.96 37.41H108.97L109.14 39.44H109.22C109.8 38.38 111.28 37.1 113.53 37.1C115.9 37.1 118.35 38.63 118.35 42.92V50.97H114.93V43.31C114.93 41.36 114.21 39.89 112.34 39.89C110.98 39.89 110.03 40.86 109.67 41.89C109.56 42.2 109.53 42.61 109.53 43V50.96H106.08V41.44L106.07 41.45Z" fill="#342B48"/>
<path d="M131.15 50.55C130.43 50.88 129.01 51.27 127.31 51.27C123.08 51.27 120.32 48.54 120.32 44.34C120.32 40.14 123.1 37.1 127.86 37.1C129.11 37.1 130.39 37.38 131.17 37.74L130.56 40.3C130 40.05 129.2 39.77 127.97 39.77C125.35 39.77 123.79 41.69 123.82 44.17C123.82 46.95 125.63 48.54 127.97 48.54C129.17 48.54 130 48.29 130.67 48.01L131.14 50.54L131.15 50.55Z" fill="#342B48"/>
<path d="M135.05 45.15C135.13 47.6 137.05 48.66 139.23 48.66C140.82 48.66 141.96 48.44 142.99 48.05L143.49 50.42C142.32 50.89 140.71 51.28 138.76 51.28C134.36 51.28 131.77 48.55 131.77 44.4C131.77 40.64 134.05 37.11 138.39 37.11C142.73 37.11 144.24 40.73 144.24 43.71C144.24 44.35 144.18 44.85 144.13 45.16H135.06L135.05 45.15ZM141.01 42.76C141.04 41.51 140.48 39.45 138.2 39.45C136.08 39.45 135.19 41.37 135.05 42.76H141.01Z" fill="#342B48"/>
<path d="M8.41 46.15C8.54 46.13 8.44 46.12 8.41 46.15Z" fill="#342B48"/>
<path d="M53.3 29.78L50.39 24.69L48.42 21.27V20.19L46.01 15.63L46.69 14.85L46.22 13.83L46.55 12.49L45.15 10.26L45.11 8.99L44.69 8.17L43.92 6.23L42.94 8.31L43.16 9.11L41.57 12.33L41.76 13.67L41.19 15.1L41.86 15.9L41.19 17.39L36.98 12.63L33.25 8.85L31.35 7.86L30.15 4.88L28.51 3.9L26.87 2.06L25.12 3.9L24.03 4.74L19.32 10.54L18.33 11.13L16.47 14.96L15.81 13.66L16.36 12.17L15.38 7.71L15.79 6.3L14.72 4.03L14.5 2.36L13.84 -0.0200005L12.28 4.89L12.57 6.23L11.44 9.37L11.99 10.1L11.22 12.18L11.55 13.07L10.45 15.9L10.78 17.24L9.68 19.92L8.64 16.05V14.27L9.24 13.23L7.71 8.6L8.54 8.47L8.35 7.43L6.72 2.52L5.08 8.32L5.63 8.73L3.95 14.42L4.43 14.98L1.25 24.84L2.02 25.27L0.309998 29.16V29.69C4.02 29.31 14.07 28.42 26.5 28.42C38.93 28.42 49.68 29.4 53.31 29.78" fill="#342B48"/>
<path d="M50.48 34.11C47.71 33.72 51.77 31.15 53.13 30.34C52.38 30.26 51.36 30.16 50.08 30.05C45.26 29.63 36.89 29.06 26.49 29.06C16.09 29.06 7.31 29.64 2.79 30.05C1.7 30.15 0.83 30.23 0.21 30.3V30.77C0.21 30.77 0.37 31.14 0.9 31.89C1.02 32.06 1.17 32.26 1.34 32.48C1.49 32.67 1.66 32.88 1.85 33.11C2.17 33.5 32.51 33.17 2.11 34.03C1.87 34.03 1.67 34.47 1.32 34.61C0.72 34.86 0 35 0 35.26C0 35.39 0.19 35.65 0.46 35.98C0.75 36.33 1.02 37.16 1.51 37.16C11.93 37.16 1.65 37.29 2.26 38.07C2.6 38.5 2.71 38.83 2.36 38.85C-0.96 39.06 2.4 39.22 3.02 39.65C3.27 39.82 3.54 40.01 3.8 40.2C4.57 40.76 5.18 41.41 4.34 41.39C0.0300002 41.3 3.49 41.6 3.86 41.81C3.95 41.86 4.08 42.13 4.22 42.51C4.34 42.82 5.79 43.27 3.05 43.63C2.77 43.67 6.89 44.25 4.92 44.59C3.22 44.88 0.69 45.51 4.28 45.69C4.75 45.71 9.87 46.34 5.6 46.34C5.43 46.34 4.84 46.42 4.61 46.43C3.91 46.47 4.99 47.39 4.35 47.39C1.89 47.39 5.69 48.19 5.41 48.23C4.99 48.29 5.73 49.3 5.39 49.43C5.36 49.44 4.93 49.66 4.89 49.66C4.11 49.76 6.25 49.63 5.69 50.2C5.48 50.41 4.22 50.66 5.78 50.74C5.97 50.74 4.43 50.98 4.74 50.98C4.8 50.98 6.19 51.4 6.25 51.4C6.82 51.4 5.5 50.51 6.53 50.27C7.02 50.16 6.63 49.55 6.95 49.49C8.04 49.31 8.44 48.52 8.18 48.47C5.3 47.93 8.14 47.57 8.32 47.46C10.25 46.21 8.79 46.52 8.46 46.27C8.38 46.21 8.37 46.18 8.39 46.16C8.3 46.17 8.08 46.18 7.62 46.17C7.1 46.16 7.86 45.21 7.35 45.13C5.82 44.88 8.1 44.43 8.32 44.11C8.54 43.77 7.79 43.23 8.08 43.15C8.91 42.93 9.89 43.42 9.92 42.85C9.92 42.81 9.16 42.76 9.16 42.7C9.16 42.29 7.33 42.49 7.23 42.02C7.2 41.86 8.08 41.96 7.87 41.65C7.41 40.96 6.47 40.83 7.37 40.65C7.62 40.6 8 40.57 8.55 40.58C10.37 40.61 9.95 40.33 9.39 40.07C8.93 39.86 8.38 39.65 8.89 39.64C9.31 39.64 9.49 39.36 9.57 39.02C9.7 38.44 3.7 37.77 9.6 37.68C10.25 37.68 7.28 38.13 10.78 38.13C32.4 38.13 12.34 38.37 11.41 38.49C10.79 38.57 10.29 38.76 10.28 38.9C10.26 39.14 10.93 39.44 11.54 39.62C11.96 39.74 12.05 40.47 10.38 40.69C9.87 40.76 9.65 40.97 9.62 41.24C9.59 41.51 10.46 41.49 10.74 41.77C11.1 42.13 10.95 42.77 11.48 42.8C12.97 43.14 11.58 43.23 11.15 43.47C10.93 43.59 10.98 44.39 11.97 44.34C12.68 44.46 12.49 44.83 11.92 45.03C11.36 45.23 12.77 45.41 11.37 45.57C11.12 45.6 12.25 46.07 10.93 46.15C10.9 46.44 11.03 46.75 11.4 46.78C11.57 47.01 12.13 47.07 12.3 47.26C12.54 47.53 12.51 47.93 12.51 47.93C12.51 47.93 14.27 48.67 13 48.88C12.81 48.91 12.56 48.93 12.22 48.94C11.75 48.94 10.86 49.69 12.22 49.69C13.1 49.69 12.64 50.15 12.74 50.23C13.38 50.77 13.1 51.34 12.49 51.34C10.53 51.34 12.25 51.62 13.33 52.04C13.69 52.18 13.59 52.59 13.78 52.61C14.16 52.64 14.33 51.54 14.75 51.51C15.55 51.45 15.24 51.02 14.44 50.83C12.85 50.45 14 49.7 14.66 49.58C14.99 49.51 10.22 49.12 15.33 48.8C15.66 48.78 15.47 47.54 15.64 47.45C16.11 47.21 13.69 46.25 16.44 46.25C17.07 46.25 16.99 45.77 15.35 45.77C14.24 45.77 14.22 45.5 15.02 45.41C16.02 45.29 14.03 43.79 15.97 43.86C16.34 43.87 17.24 43.67 16.68 43.62C14.51 43.44 16.34 42.52 15.76 42.36C15.17 42.19 9.83 41.15 16.42 41.38C21.34 41.56 17.06 42.03 18.29 42.1C20.22 42.2 23.27 42.12 23.32 42.28C23.45 42.76 18.04 42.93 17.46 42.98C16.53 43.06 17.8 43.89 18.37 44.07C18.91 44.24 24 44.52 19.28 44.7C16.95 44.79 25.65 46.26 21.42 46.67C17.19 47.09 21.92 47.47 22.42 47.59C24.38 48.21 20.99 48.71 23.18 48.82C25.52 48.82 22.63 49.36 23.04 49.36C25.83 49.49 28.81 49.44 25.52 50.08C23.51 50.47 23.74 50.84 24.85 50.86C26.44 50.89 26.76 51.75 27.08 51.79C27.5 51.84 27.32 51.24 27.57 51.16C28.42 50.89 27.71 49.9 28.51 49.68C28.51 49.68 32.75 49.09 30.16 48.94C27.57 48.8 37.79 46.87 31.37 46.71C24.94 46.55 33.28 45.97 33.28 45.97C33.28 45.97 36.54 45.07 34.58 44.99C15.62 44.25 36.9 44.31 37.21 44.07C37.56 43.8 35.11 43.47 35.94 43C36.23 42.83 37.93 42.67 38.24 42.64C39.62 42.55 39.93 42 38.91 41.92C36.65 41.74 37.33 40.9 39.19 40.4C39.53 40.31 27.66 39.8 34.37 39.63C34.66 39.63 33.03 38.96 35.01 38.96C38.41 38.96 34.09 39.57 41.25 39.57C43.98 39.57 38.92 40.35 41.92 40.68C44.92 41.02 42.46 40.91 41.25 41.28C40.04 41.65 40.79 42.16 41.83 42.35C42.87 42.54 42.32 43.28 41.64 43.35C40.89 43.43 42.66 44.52 42.02 44.48C40.82 44.42 43.02 45.71 43.23 45.76C43.65 45.85 43.86 46.33 43.01 46.36C42.49 46.38 43.06 47.02 43.58 47.52C43.91 47.83 44 48.18 44.21 48.09C44.42 48 43.59 47.29 43.92 47.29C44.78 47.29 44 46.48 44.76 46.47C46.27 46.45 44.32 46.05 45.19 45.86C46.05 45.67 44.34 44.87 45.23 44.91C46.12 44.95 44.59 43.58 46.63 43.24C48.67 42.9 46.3 42.24 46.3 42.24C46.3 42.24 36.07 41.47 46.77 41.47C47.97 41.47 45.42 40.88 46.08 40.88C48.81 40.83 44.64 40.11 47.04 40.11C48.1 40.11 48.14 39.68 48.38 39.66C49.66 39.57 50.29 39.02 47.39 39.02C41.77 39.01 47.18 37.42 48.49 37.47C49.8 37.52 47.89 37.15 48.49 36.66C48.73 36.47 -8.85 35.69 50.37 35.69C51.64 35.69 52.45 34.38 50.46 34.09" fill="#342B48"/>
<path d="M62.43 11.77H57.08V8.9H71.25V11.77H65.85V27.66H62.43V11.77Z" fill="#342B48"/>
</svg>
